<?xml version="1.0" encoding="utf-8"?>
<!-- DevOps Logo - Colored Branding Version -->
<svg version="1.1" id="Layer_1" xmlns="http://www.w3.org/2000/svg" xmlns:xlink="http://www.w3.org/1999/xlink" x="0px" y="0px"
	 viewBox="75 90 110 70" style="enable-background:new 75 90 110 70;" xml:space="preserve">
<style type="text/css">
	.st1{fill:#3DC0C4;}
	.st2{fill:#283066;}
</style>
<g>
	<path class="st1" d="M144.1,115.6L144.1,115.6c1.3-1.4,2.8-2.4,4.6-3c1.1-0.4,2.3-0.6,3.5-0.6c1.6,0,3.1,0.3,4.5,0.9
		c0.3,0.1,0.5,0.2,0.8,0.4c0,0,0,0,0,0c0.2,0.1,0.4,0.3,0.7,0.4l7.3-10c-2.3-1.6-5-2.8-7.8-3.4c-0.6-0.1-1.2-0.3-1.9-0.4
		c-0.1,0-0.2,0-0.3,0c-0.3,0-0.6-0.1-0.9-0.1c-0.3,0-0.6,0-0.9-0.1c-0.5,0-1,0-1.5,0h-0.1c-0.3,0-0.6,0-0.9,0c-0.2,0-0.3,0-0.5,0
		c-0.3,0-0.5,0-0.8,0.1c-0.2,0-0.4,0-0.6,0.1c-1.3,0.1-2.5,0.4-3.7,0.8c-0.2,0.1-0.5,0.1-0.7,0.2c-0.5,0.1-0.9,0.3-1.4,0.5
		c-4.5,1.8-8.2,4.9-10.9,8.8c-0.3,0.4-13,18.1-13,18.1c-0.4,0.6-0.8,1.1-1.3,1.6l0,0c-1.3,1.3-2.8,2.4-4.6,3
		c-1.1,0.4-2.3,0.6-3.5,0.6c-1.6,0-3.1-0.3-4.5-0.9c-0.3-0.1-0.5-0.2-0.8-0.4c0,0,0,0,0,0c-0.2-0.1-0.4-0.3-0.7-0.4l-7.3,10
		c2.3,1.6,5,2.8,7.8,3.4c0.6,0.1,1.2,0.3,1.9,0.4c0.1,0,0.2,0,0.3,0c0.3,0,0.6,0.1,0.9,0.1c0.3,0,0.6,0,0.9,0.1c0.5,0,1,0,1.5,0h0.1
		c0.3,0,0.6,0,0.9,0c0.2,0,0.3,0,0.5,0c0.3,0,0.5,0,0.8-0.1c0.2,0,0.4,0,0.6-0.1c1.3-0.1,2.5-0.4,3.7-0.8c0.2-0.1,0.5-0.1,0.7-0.2
		c0.5-0.1,0.9-0.3,1.4-0.5c4.5-1.8,8.2-4.9,10.9-8.8C130.2,134.9,143.7,116.1,144.1,115.6z"/>
	<path class="st2" d="M169.4,107.1L169.4,107.1c-0.5-0.5-1-1-1.6-1.5l0,0c-0.1-0.1-0.1-0.1-0.2-0.2l-7.3,10c0.2,0.2,0.4,0.4,0.5,0.6
		c0,0,0,0,0.1,0.1c0.2,0.3,0.4,0.5,0.6,0.8c0,0,0,0,0,0.1c0.2,0.3,0.4,0.6,0.5,0.9c0.1,0.2,0.2,0.3,0.3,0.5c0.1,0.2,0.2,0.3,0.2,0.5
		c0.2,0.3,0.3,0.7,0.4,1c0.3,1,0.5,2.2,0.5,3.3c0,0.8-0.1,1.5-0.2,2.3c-0.4,2.2-1.5,4.1-3,5.6c-0.2,0.3-0.5,0.5-0.8,0.7
		c-0.1,0.1-0.3,0.2-0.4,0.3c-1.9,1.4-4.2,2.2-6.7,2.2c-1.8,0-3.4-0.4-4.9-1.1c-0.8-0.4-1.6-0.9-2.2-1.5c-1.3-1.1-2.3-2.4-3-4l0,0.1
		l-7.7,10.5c4.3,5.1,10.7,8.3,17.9,8.3c0.8,0,1.6,0,2.4-0.1c1.6-0.2,3.1-0.5,4.5-0.9c9.6-2.9,16.6-11.9,16.6-22.4
		C175.8,117,173.4,111.3,169.4,107.1z"/>
	<path class="st2" d="M128.4,107.1l-7.7,10.5l0,0.1c-0.7-1.6-1.7-2.9-3-4c-0.3-0.2-0.5-0.4-0.8-0.6l-6.3,9.2l-6.3-9.2
		c-0.1,0.1-0.2,0.2-0.3,0.2c-0.1,0.1-0.3,0.2-0.4,0.3c-0.3,0.2-0.5,0.5-0.8,0.7c-1.5,1.5-2.6,3.4-3,5.6c-0.2,0.7-0.2,1.5-0.2,2.3
		c0,1.2,0.2,2.3,0.5,3.3c0.1,0.4,0.2,0.7,0.4,1c0.1,0.2,0.1,0.3,0.2,0.5c0.1,0.2,0.2,0.3,0.3,0.5c0.2,0.3,0.3,0.6,0.5,0.9
		c0,0,0,0,0,0.1c0.2,0.3,0.4,0.5,0.6,0.8c0,0,0,0,0,0.1c0.2,0.2,0.4,0.4,0.6,0.6l-7.3,10c-0.1,0-0.1-0.1-0.2-0.2l0,0
		c-0.5-0.5-1.1-1-1.6-1.5l0,0c-4-4.2-6.4-9.9-6.4-16.1c0-10.6,7-19.5,16.5-22.4c0.2-0.1,0.4-0.1,0.6-0.2l5.3,7.6l1.1,1.6l1.1-1.6
		l5.3-7.6C121.3,100.9,125.4,103.6,128.4,107.1z"/>
</g>
<ellipse transform="matrix(0.9239 -0.3827 0.3827 0.9239 -35.5533 67.689)" class="st2" cx="152.4" cy="123.2" rx="6.1" ry="6.1"/>
</svg>